# AST/ASF file generated using VICON BodyLanguage
# -----------------------------------------------
:version 1.10
:name VICON
:units
  mass 1.0
  length 0.45
  angle deg
:documentation
   .ast/.asf automatically generated from VICON data using
   VICON BodyBuilder and BodyLanguage model FoxedUp or BRILLIANT.MOD
:root
   order TX TY TZ RX RY RZ
   axis XYZ
   position 0 0 0  
   orientation 0 0 0 
:bonedata
  begin
     id 1 
     name lhipjoint
     direction 0.589753 -0.68606 0.426044 
     length 2.54082 
     axis 0 0 0  XYZ
  end
  begin
     id 2 
     name lfemur
     direction 0.34202 -0.939693 0  
     length 7.04539  
     axis 0 0 20  XYZ
    dof rx ry rz
    limits (-160.0 20.0)
           (-70.0 70.0)
           (-60.0 70.0)
  end
  begin
     id 3 
     name ltibia
     direction 0.34202 -0.939693 0   
     length 7.83772   
     axis 0 0 20   XYZ
    dof rx
    limits (-10.0 170.0)
  end
  begin
     id 4 
     name lfoot
     direction 0.0596604 -0.163915 0.984669   
     length 2.39542   
     axis -90 7.62852e-016 20   XYZ
    dof rx rz
    limits (-45.0 90.0)
           (-70.0 20.0)
  end
  begin
     id 5 
     name ltoes
     direction 1.53514e-011 -4.21954e-011 1   
     length 1.2047   
     axis -90 7.62852e-016 20   XYZ
    dof rx
    limits (-90.0 20.0)
  end
  begin
     id 6 
     name rhipjoint
     direction -0.580585 -0.69168 0.429534   
     length 2.52018  
     axis 0 0 0  XYZ 
  end
  begin
     id 7 
     name rfemur
     direction -0.34202 -0.939693 0   
     length 7.0101   
     axis 0 0 -20   XYZ
    dof rx ry rz
    limits (-160.0 20.0)
           (-70.0 70.0)
           (-70.0 60.0)
  end
  begin
     id 8 
     name rtibia
     direction -0.34202 -0.939693 0   
     length 7.70628   
     axis 0 0 -20   XYZ
    dof rx
    limits (-10.0 170.0)
 end
 begin
     id 9 
     name rfoot
     direction -0.0696237 -0.19129 0.979061   
     length 2.52466  
     axis -90 -7.62852e-016 -20   XYZ
    dof rx rz
    limits (-45.0 90.0)
           (-20.0 70.0)
  end
  begin
     id 10 
     name rtoes
     direction -1.53519e-011 -4.21793e-011 1   
     length 1.266   
     axis -90 -7.62852e-016 -20   XYZ
    dof rx
    limits (-90.0 20.0)
  end
  begin
     id 11 
     name lowerback
     direction 0.00381965 0.995707 -0.0924856   
     length 2.20825   
     axis 0 0 0   XYZ
    dof rx ry rz
    limits (-20.0 45.0)
           (-30.0 30.0)
           (-30.0 30.0)
  end
  begin
     id 12 
     name upperback
     direction -0.0139043 0.999634 -0.0231929   
     length 2.21517   
     axis 0 0 0   XYZ
    dof rx ry rz
    limits (-20.0 45.0)
           (-30.0 30.0)
           (-30.0 30.0)
  end
  begin
     id 13 
     name thorax
     direction -0.0143933 0.999691 0.0202892   
     length 2.22911   
     axis 0 0 0   XYZ
    dof rx ry rz
    limits (-20.0 45.0)
           (-30.0 30.0)
           (-30.0 30.0)
  end
  begin
     id 14 
     name lowerneck
     direction -0.0251153 0.981819 0.188153   
     length 1.61782   
     axis 0 0 0   XYZ
    dof rx ry rz
    limits (-20.0 45.0)
           (-30.0 30.0)
           (-30.0 30.0)
  end
  begin
     id 15 
     name upperneck
     direction 0.0563891 0.969357 -0.239095   
     length 1.64526   
     axis 0 0 0   XYZ
    dof rx ry rz
    limits (-20.0 45.0)
           (-30.0 30.0)
           (-30.0 30.0)
  end
  begin
     id 16
     name head
     direction 0.0208328 0.99459 -0.101773  
     length 1.67436  
     axis 0 0 0   XYZ
    dof rx ry rz
    limits (-20.0 45.0)
           (-30.0 30.0)
           (-30.0 30.0)
  end
  begin
     id 17 
     name lclavicle
     direction 0.917689 0.397224 0.00772059  
     length 3.31102  
     axis 0 0 0   XYZ
    dof ry rz
    limits (-20.0 10.0)
           (0.0 20.0)
  end
  begin
     id 18 
     name lhumerus
     direction 1 -4.4896e-011 2.32308e-027   
     length 5.25537   
     axis 180 -30 -90   XYZ
    dof rx ry rz
    limits (-60.0 90.0)
           (-90.0 90.0)
           (-90.0 90.0)
  end
  begin
     id 19
     name lradius
     direction 1 -4.49005e-011 -2.04271e-027   
     length 3.38855   
     axis 180 -30 -90   XYZ
    dof rx
    limits (-10.0 170.0)
  end
  begin
     id 20
     name lwrist
     direction 1 -4.48892e-011 2.56952e-028   
     length 1.69428   
     axis -5.12785e-016 90 90   XYZ
    dof ry
    limits (-180.0 0.0)
 end
  begin
     id 21 
     name lhand
     direction 1 -4.48966e-011 5.13905e-028   
     length 0.614516   
     axis -3.27915e-016 90 90   XYZ
    dof rx rz
    limits (-90.0 90.0)
           (-45.0 45.0)
  end
  begin
     id 22 
     name lfingers
     direction 1 -4.48979e-011 1.02781e-027   
     length 0.495439   
     axis -6.5583e-016 90 90   XYZ
    dof rx
    limits (0.0 90.0)
  end
  begin
     id 23
     name lthumb
     direction 0.707107 -6.35001e-011 0.707107   
     length 0.711354   
     axis -90 45 2.85299e-015   XYZ
    dof rx rz
    limits (-45.0 45.0)
           (-45.0 45.0)
  end
  begin
     id 24 
     name rclavicle
     direction -0.938556 0.342765 -0.0403177   
     length 3.27019  
     axis 0 0 0   XYZ 
    dof ry rz
    limits (-10.0 20.0)
           (-20.0 0.0)
  end
  begin
     id 25 
     name rhumerus
     direction -1 -4.48966e-011 2.52291e-027  
     length 5.38183   
     axis 180 30 90   XYZ
    dof rx ry rz
    limits (-90.0 60.0)
           (-90.0 90.0)
           (-90.0 90.0)
  end
  begin
     id 26 
     name rradius
     direction -1 -4.4896e-011 1.5797e-027   
     length 3.16988   
     axis 180 30 90   XYZ
    dof rx
    limits (-10.0 170.0)
  end
  begin
     id 27 
     name rwrist
     direction -1 -4.48947e-011 2.56952e-028   
     length 1.58494   
     axis -5.12785e-016 -90 -90   XYZ
    dof ry
    limits (-180.0 0.0)
  end
  begin
     id 28
     name rhand
     direction -1 -4.49098e-011 5.13905e-028   
     length 0.637679   
     axis -3.27915e-016 -90 -90   XYZ
    dof rx rz
    limits (-90.0 90.0)
           (-45.0 45.0)
  end
  begin
     id 29
     name rfingers
     direction -1 -4.49026e-011 1.02781e-027   
     length 0.514113   
     axis -6.5583e-016 -90 -90   XYZ
    dof rx
    limits (0.0 90.0)
  end
  begin
     id 30
     name rthumb
     direction -0.707107 -6.3491e-011 0.707107   
     length 0.738167   
     axis -90 -45 -2.85299e-015   XYZ
    dof rx rz
    limits (-45.0 45.0)
           (-45.0 45.0)
  end
:hierarchy
  begin
    root lhipjoint rhipjoint lowerback
    lhipjoint lfemur
    lfemur ltibia
    ltibia lfoot
    lfoot ltoes
    rhipjoint rfemur
    rfemur rtibia
    rtibia rfoot
    rfoot rtoes
    lowerback upperback
    upperback thorax
    thorax lowerneck lclavicle rclavicle
    lowerneck upperneck
    upperneck head
    lclavicle lhumerus
    lhumerus lradius
    lradius lwrist
    lwrist lhand lthumb
    lhand lfingers
    rclavicle rhumerus
    rhumerus rradius
    rradius rwrist
    rwrist rhand rthumb
    rhand rfingers
  end

#!OML:ASF H:\Swim\Project 1\Capture day 1\Session 1\swimmer.ASF
:FULLY-SPECIFIED
:DEGREES
1240
root 4.48829 12.3501 8.69393 72.8631 -3.70226 -0.776003
lowerback 17.7438 -0.0493186 -1.25206
upperback -3.97463 -0.845425 -3.46198
thorax -14.5907 -0.487173 -2.95425
lowerneck -34.965 -5.94137 -6.5239
upperneck 13.8882 -7.95216 12.5148
head 10.8915 -2.35815 4.20675
rclavicle 7.95139e-016 2.32578e-014
rhumerus 36.036 59.2348 -31.0267
rradius 112.05
rwrist -44.2402
rhand -50.4503 12.6414
rfingers 7.12502
rthumb -23.0213 -16.0037
lclavicle 7.95139e-016 2.32578e-014
lhumerus 30.5055 -57.5985 21.6459
lradius 116.512
lwrist 30.4356
lhand -52.3665 27.0899
lfingers 7.12502
lthumb -24.8588 55.4937
rfemur -17.0994 -12.9367 -0.251536
rtibia 103.121
rfoot 7.89027 -0.588487
rtoes -10.7632
lfemur -18.0965 16.2092 -6.29217
ltibia 98.0682
lfoot 12.3866 3.03453
ltoes 1.06395
1241
root 4.48949 12.349 8.69187 72.8435 -3.69056 -0.79114
lowerback 17.7468 -0.0518439 -1.2415
upperback -3.96403 -0.845332 -3.45719
thorax -14.5799 -0.487629 -2.95454
lowerneck -34.9028 -5.95406 -6.57089
upperneck 13.848 -7.95747 12.5615
head 10.8725 -2.36067 4.22994
rclavicle 0 -2.98177e-016
rhumerus 35.9217 59.3181 -31.1178
rradius 112.172
rwrist -43.6327
rhand -50.3587 13.0917
rfingers 7.12502
rthumb -22.9334 -15.5643
lclavicle 0 -2.98177e-016
lhumerus 30.4589 -57.6415 21.6329
lradius 116.688
lwrist 29.7658
lhand -52.4145 26.6299
lfingers 7.12502
lthumb -24.9048 55.0274
rfemur -17.1011 -12.899 -0.199753
rtibia 103.022
rfoot 7.86223 -0.618806
rtoes -10.7019
lfemur -18.1122 16.2145 -6.32993
ltibia 97.9416
lfoot 12.3632 3.04329
ltoes 1.03178
1242
root 4.49074 12.3479 8.68956 72.8197 -3.68251 -0.803844
lowerback 17.7508 -0.0556086 -1.23496
upperback -3.95186 -0.847946 -3.45329
thorax -14.568 -0.489008 -2.95272
lowerneck -34.8117 -5.96921 -6.63028
upperneck 13.7742 -7.96315 12.6291
head 10.8383 -2.36342 4.26213
rclavicle 2.78299e-015 1.38155e-014
rhumerus 35.7234 59.3286 -31.3355
rradius 112.235
rwrist -42.8801
rhand -50.1852 13.3465
rfingers 7.12502
rthumb -22.7668 -15.3301
lclavicle 2.78299e-015 1.38155e-014
lhumerus 30.3315 -57.616 21.737
lradius 116.822
lwrist 29.0416
lhand -52.402 26.142
lfingers 7.12502
lthumb -24.8928 54.5411
rfemur -17.0948 -12.8587 -0.152677
rtibia 102.916
rfoot 7.82712 -0.659741
rtoes -10.6826
lfemur -18.1233 16.2142 -6.37544
ltibia 97.8052
lfoot 12.335 3.04867
ltoes 1.00636
1243
root 4.49201 12.3467 8.68696 72.7944 -3.67975 -0.815195
lowerback 17.7541 -0.0602612 -1.23286
upperback -3.93962 -0.853193 -3.45239
thorax -14.5557 -0.49138 -2.95096
lowerneck -34.7352 -5.98316 -6.68088
upperneck 13.7158 -7.97129 12.6921
head 10.8119 -2.36639 4.29108
rclavicle 0 -1.11319e-014
rhumerus 35.4381 59.2621 -31.6862
rradius 112.246
rwrist -41.9877
rhand -50.0139 13.6417
rfingers 7.12502
rthumb -22.6025 -15.055
lclavicle 0 -1.11319e-014
lhumerus 30.1237 -57.5149 21.956
lradius 116.915
lwrist 28.2659
lhand -52.3151 25.7206
lfingers 7.12502
lthumb -24.8095 54.1312
rfemur -17.0849 -12.8158 -0.1114
rtibia 102.804
rfoot 7.79595 -0.700322
rtoes -10.6365
lfemur -18.1319 16.2103 -6.42997
ltibia 97.6598
lfoot 12.3093 3.04982
ltoes 0.987426
1244
root 4.4933 12.3456 8.68401 72.7664 -3.67986 -0.826262
lowerback 17.7594 -0.0656752 -1.2348
upperback -3.92791 -0.860592 -3.45209
thorax -14.5453 -0.494437 -2.94699
lowerneck -34.7125 -5.992 -6.70162
upperneck 13.7177 -7.98278 12.7233
head 10.8134 -2.36957 4.3039
rclavicle -3.97569e-015 -3.3694e-014
rhumerus 35.083 59.1287 -32.1485
rradius 112.212
rwrist -40.9757
rhand -49.8183 13.765
rfingers 7.12502
rthumb -22.4147 -14.9545
lclavicle -3.97569e-015 -3.3694e-014
lhumerus 29.8403 -57.3403 22.2859
lradius 116.965
lwrist 27.4428
lhand -52.2105 25.2825
lfingers 7.12502
lthumb -24.7092 53.7069
rfemur -17.0706 -12.7706 -0.0731021
rtibia 102.689
rfoot 7.76191 -0.745715
rtoes -10.6184
lfemur -18.1359 16.2021 -6.48971
ltibia 97.5075
lfoot 12.2852 3.04995
ltoes 0.980729
1245
root 4.49463 12.3444 8.68062 72.7344 -3.68521 -0.836084
lowerback 17.7693 -0.0714597 -1.2422
upperback -3.91631 -0.870199 -3.45367
thorax -14.5378 -0.498163 -2.94145
lowerneck -34.7595 -5.99774 -6.68965
upperneck 13.7968 -8.00082 12.7145
head 10.8512 -2.37419 4.29685
rclavicle -5.1684e-015 2.96189e-014
rhumerus 34.6784 58.9305 -32.6981
rradius 112.14
rwrist -39.8883
rhand -49.6339 13.8179
rfingers 7.12502
rthumb -22.2377 -14.9227
lclavicle -5.1684e-015 2.96189e-014
lhumerus 29.4965 -57.0984 22.7138
lradius 116.971
lwrist 26.5929
lhand -52.0902 24.8392
lfingers 7.12502
lthumb -24.5939 53.2794
rfemur -17.0521 -12.7231 -0.0417758
rtibia 102.572
rfoot 7.7314 -0.78412
rtoes -10.6068
lfemur -18.1335 16.189 -6.55721
ltibia 97.3482
lfoot 12.2664 3.05402
ltoes 1.00258
1246
root 4.49599 12.3434 8.67679 72.6987 -3.68666 -0.847609
lowerback 17.7843 -0.0782742 -1.2458
upperback -3.90527 -0.880421 -3.45461
thorax -14.5343 -0.502501 -2.93728
lowerneck -34.8682 -5.99793 -6.6461
upperneck 13.9466 -8.02097 12.6648
head 10.9212 -2.37888 4.27046
rclavicle -6.75868e-015 4.77083e-015
rhumerus 34.2534 58.676 -33.3001
rradius 112.034
rwrist -38.7699
rhand -49.4687 13.7964
rfingers 7.12502
rthumb -22.0791 -14.9631
lclavicle -6.75868e-015 4.77083e-015
lhumerus 29.1131 -56.795 23.2167
lradius 116.935
lwrist 25.7364
lhand -51.9607 24.4129
lfingers 7.12502
lthumb -24.4698 52.8698
rfemur -17.0287 -12.6726 -0.0040826
rtibia 102.453
rfoot 7.71024 -0.818243
rtoes -10.5553
lfemur -18.1274 16.1736 -6.61864
ltibia 97.1882
lfoot 12.2528 3.05479
ltoes 1.01025
1247
root 4.49731 12.3424 8.67258 72.6593 -3.68856 -0.860373
lowerback 17.8038 -0.084815 -1.25022
upperback -3.89505 -0.890747 -3.45613
thorax -14.5345 -0.506881 -2.93336
lowerneck -34.9639 -5.99892 -6.60683
upperneck 14.0807 -8.04152 12.6247
head 10.9843 -2.38368 4.24792
rclavicle 9.93923e-015 -4.47266e-015
rhumerus 33.837 58.375 -33.9156
rradius 111.892
rwrist -37.6805
rhand -49.3314 13.8295
rfingers 7.12502
rthumb -21.9473 -14.9455
lclavicle 9.93923e-015 -4.47266e-015
lhumerus 28.7172 -56.433 23.7652
lradius 116.856
lwrist 24.8987
lhand -51.8526 23.9648
lfingers 7.12502
lthumb -24.3662 52.4357
rfemur -17.0015 -12.6196 0.0342385
rtibia 102.334
rfoot 7.69407 -0.84451
rtoes -10.5283
lfemur -18.1163 16.1565 -6.67921
ltibia 97.0269
lfoot 12.2397 3.06134
ltoes 1.01333
1248
root 4.49859 12.3415 8.66812 72.6141 -3.68959 -0.874586
lowerback 17.8301 -0.0909619 -1.25475
upperback -3.88542 -0.90075 -3.45706
thorax -14.5394 -0.511104 -2.92894
lowerneck -35.0291 -6.00132 -6.58202
upperneck 14.1821 -8.05942 12.6024
head 11.032 -2.38788 4.23419
rclavicle 7.95139e-015 -2.96189e-014
rhumerus 33.4369 58.0189 -34.5352
rradius 111.715
rwrist -36.6273
rhand -49.2003 13.8878
rfingers 7.12502
rthumb -21.8214 -14.9019
lclavicle 7.95139e-015 -2.96189e-014
lhumerus 28.3206 -56.0188 24.3484
lradius 116.733
lwrist 24.076
lhand -51.7412 23.5354
lfingers 7.12502
lthumb -24.2594 52.0206
rfemur -16.9674 -12.5638 0.0743612
rtibia 102.213
rfoot 7.68389 -0.860303
rtoes -10.5104
lfemur -18.0981 16.1377 -6.73587
ltibia 96.8672
lfoot 12.2251 3.0768
ltoes 1.01972
1249
root 4.49981 12.3406 8.66351 72.5644 -3.68969 -0.889199
lowerback 17.8606 -0.0962574 -1.25805
upperback -3.87621 -0.909709 -3.45951
thorax -14.5475 -0.515074 -2.92733
lowerneck -35.0495 -6.00639 -6.57485
upperneck 14.2324 -8.07519 12.6047
head 11.0558 -2.39206 4.23184
rclavicle -7.95139e-016 4.57205e-015
rhumerus 33.0576 57.6019 -35.1501
rradius 111.51
rwrist -35.6311
rhand -49.0653 13.9365
rfingers 7.12502
rthumb -21.6917 -14.8683
lclavicle -7.95139e-016 4.57205e-015
lhumerus 27.9499 -55.5577 24.937
lradius 116.564
lwrist 23.2705
lhand -51.6621 23.1014
lfingers 7.12502
lthumb -24.1836 51.5968
rfemur -16.9262 -12.5086 0.115545
rtibia 102.091
rfoot 7.67636 -0.868335
rtoes -10.5307
lfemur -18.0737 16.1175 -6.7892
ltibia 96.7083
lfoot 12.2101 3.10046
ltoes 1.03924
1250
root 4.50097 12.3398 8.65884 72.5102 -3.68766 -0.90354
lowerback 17.8946 -0.101187 -1.25918
upperback -3.86725 -0.917921 -3.46282
thorax -14.5579 -0.518962 -2.92824
lowerneck -35.0414 -6.0142 -6.58067
upperneck 14.2467 -8.09148 12.6293
head 11.0637 -2.39642 4.23912
rclavicle 1.19271e-015 3.97569e-016
rhumerus 32.6978 57.127 -35.7566
rradius 111.281
rwrist -34.6969
rhand -48.9155 13.9863
rfingers 7.12502
rthumb -21.5479 -14.835
lclavicle 1.19271e-015 3.97569e-016
lhumerus 27.6106 -55.0475 25.5257
lradius 116.345
lwrist 22.4594
lhand -51.6032 22.6795
lfingers 7.12502
lthumb -24.1271 51.1823
rfemur -16.878 -12.4556 0.158444
rtibia 101.968
rfoot 7.66339 -0.867728
rtoes -10.649
lfemur -18.0447 16.0946 -6.83863
ltibia 96.5519
lfoot 12.1922 3.12819
ltoes 1.05976
1251
root 4.50209 12.3388 8.65418 72.4518 -3.68246 -0.917418
lowerback 17.9306 -0.105492 -1.25417
upperback -3.85761 -0.924267 -3.46879
thorax -14.5689 -0.522699 -2.93625
lowerneck -35.0401 -6.02027 -6.57834
upperneck 14.2663 -8.10713 12.6443
head 11.0737 -2.40085 4.24172
rclavicle 8.34896e-015 -2.18663e-015
rhumerus 32.3444 56.5861 -36.3703
rradius 111.031
rwrist -33.8153
rhand -48.7412 14.0181
rfingers 7.12502
rthumb -21.3804 -14.8223
lclavicle 8.34896e-015 -2.18663e-015
lhumerus 27.3211 -54.4861 26.0944
lradius 116.078
lwrist 21.6424
lhand -51.5392 22.3087
lfingers 7.12502
lthumb -24.0657 50.8197
rfemur -16.8223 -12.4041 0.204621
rtibia 101.845
rfoot 7.65346 -0.863075
rtoes -10.7353
lfemur -18.0098 16.0689 -6.88302
ltibia 96.3958
lfoot 12.1756 3.15819
ltoes 1.08248
1252
root 4.50315 12.338 8.64942 72.3895 -3.67663 -0.930977
lowerback 17.9693 -0.108716 -1.24673
upperback -3.84676 -0.929003 -3.47745
thorax -14.5801 -0.526074 -2.94921
lowerneck -35.0565 -6.02573 -6.56776
upperneck 14.3003 -8.12437 12.6503
head 11.091 -2.4056 4.23959
rclavicle 4.77083e-015 -2.10712e-014
rhumerus 31.9988 55.9859 -36.9879
rradius 110.753
rwrist -32.9731
rhand -48.5468 14.0736
rfingers 7.12502
rthumb -21.1938 -14.7878
lclavicle 4.77083e-015 -2.10712e-014
lhumerus 27.0871 -53.8693 26.635
lradius 115.764
lwrist 20.8234
lhand -51.4665 21.9922
lfingers 7.12502
lthumb -23.996 50.5124
rfemur -16.7618 -12.3558 0.250447
rtibia 101.723
rfoot 7.64668 -0.863253
rtoes -10.7451
lfemur -17.9692 16.0401 -6.92502
ltibia 96.2407
lfoot 12.1568 3.19137
ltoes 1.11266
1253
root 4.50418 12.3372 8.64457 72.3252 -3.67067 -0.943395
lowerback 18.0073 -0.111394 -1.23641
upperback -3.83329 -0.932531 -3.48854
thorax -14.5878 -0.529258 -2.96686
lowerneck -35.0869 -6.03395 -6.5546
upperneck 14.3378 -8.14605 12.6552
head 11.1121 -2.41174 4.23585
rclavicle 7.95139e-016 4.96962e-015
rhumerus 31.6573 55.3182 -37.616
rradius 110.447
rwrist -32.1433
rhand -48.3129 14.1026
rfingers 7.12502
rthumb -20.9691 -14.7839
lclavicle 7.95139e-016 4.96962e-015
lhumerus 26.9032 -53.1922 27.1552
lradius 115.405
lwrist 20.0128
lhand -51.3658 21.7237
lfingers 7.12502
lthumb -23.8994 50.2565
rfemur -16.6998 -12.3105 0.295787
rtibia 101.603
rfoot 7.63777 -0.872256
rtoes -10.702
lfemur -17.9258 16.0062 -6.96712
ltibia 96.0861
lfoot 12.1335 3.22869
ltoes 1.15407
